<svg width="20" height="20" viewBox="0 0 20 20" fill="none" xmlns="http://www.w3.org/2000/svg">
<path d="M1 16.75V6.0625C1 4.71984 1.53337 3.43217 2.48277 2.48277C3.43217 1.53337 4.71984 1 6.0625 1H13.9375C14.6023 1 15.2606 1.13095 15.8748 1.38536C16.489 1.63977 17.0471 2.01268 17.5172 2.48277C17.9873 2.95287 18.3602 3.51095 18.6146 4.12517C18.8691 4.73938 19 5.39768 19 6.0625V13.9375C19 14.6023 18.8691 15.2606 18.6146 15.8748C18.3602 16.489 17.9873 17.0471 17.5172 17.5172C17.0471 17.9873 16.489 18.3602 15.8748 18.6146C15.2606 18.8691 14.6023 19 13.9375 19H3.25C2.65326 19 2.08097 18.7629 1.65901 18.341C1.23705 17.919 1 17.3467 1 16.75V16.75Z" stroke="white" stroke-width="2" stroke-linecap="round" stroke-linejoin="round"/>
<path d="M5 10H8.5C9.03043 10 9.53914 10.2371 9.91421 10.659C10.2893 11.081 10.5 11.6533 10.5 12.25C10.5 12.8467 10.2893 13.419 9.91421 13.841C9.53914 14.2629 9.03043 14.5 8.5 14.5H5V6.625C5 6.32663 5.10536 6.04048 5.29289 5.82951C5.48043 5.61853 5.73478 5.5 6 5.5H7.5C8.03043 5.5 8.53914 5.73705 8.91421 6.15901C9.28929 6.58097 9.5 7.15326 9.5 7.75C9.5 8.34674 9.28929 8.91903 8.91421 9.34099C8.53914 9.76295 8.03043 10 7.5 10H6M13 14.5H13.01" stroke="white" stroke-width="2" stroke-linecap="round" stroke-linejoin="round"/>
</svg>
