<svg width="17" height="17" viewBox="0 0 17 17" fill="none" xmlns="http://www.w3.org/2000/svg">
<path d="M6.94778 14.1197C8.4893 14.1194 9.98639 13.6015 11.2007 12.6484L15.0185 16.48L16.2465 15.2476L12.4287 11.4159C13.3788 10.1971 13.8952 8.69426 13.8956 7.14676C13.8956 3.30206 10.7786 0.173828 6.94778 0.173828C3.11695 0.173828 0 3.30206 0 7.14676C0 10.9915 3.11695 14.1197 6.94778 14.1197ZM6.94778 1.91706C9.82155 1.91706 12.1586 4.26258 12.1586 7.14676C12.1586 10.0309 9.82155 12.3765 6.94778 12.3765C4.074 12.3765 1.73694 10.0309 1.73694 7.14676C1.73694 4.26258 4.074 1.91706 6.94778 1.91706Z" fill="white"/>
</svg>
