<svg width="17" height="21" viewBox="0 0 17 21" fill="none" xmlns="http://www.w3.org/2000/svg">
<path d="M7.99809 20.2226C8.81245 20.201 9.59395 19.8478 10.2043 19.2257C10.8147 18.6035 11.2147 17.7525 11.3334 16.823H4.53345C4.65558 17.7777 5.07425 18.6488 5.71156 19.2741C6.34887 19.8995 7.16143 20.2365 7.99809 20.2226Z" fill="white"/>
<path d="M15.856 14.4356L15.6751 14.276C15.1619 13.8187 14.7127 13.2943 14.3396 12.717C13.9322 11.9202 13.6879 11.0501 13.6213 10.1577V7.5292C13.6191 7.20992 13.5907 6.89137 13.5362 6.57677C12.6349 6.39152 11.8253 5.9005 11.2445 5.18685C10.6637 4.47321 10.3473 3.58077 10.349 2.66065V2.32543C9.79346 2.05204 9.1966 1.87226 8.58249 1.79335V1.12293C8.58249 0.934536 8.50765 0.753861 8.37444 0.620648C8.24122 0.487436 8.06055 0.412598 7.87216 0.412598C7.68376 0.412598 7.50309 0.487436 7.36988 0.620648C7.23666 0.753861 7.16183 0.934536 7.16183 1.12293V1.81996C5.78678 2.01393 4.52833 2.69882 3.61881 3.74819C2.70929 4.79755 2.21012 6.14054 2.21346 7.5292V10.1577C2.14682 11.0501 1.90261 11.9202 1.49515 12.717C1.12848 13.2929 0.68649 13.8172 0.180908 14.276L0 14.4356V15.9361H15.856V14.4356Z" fill="white"/>
<path d="M14.3396 5.32094C15.8089 5.32094 17 4.12984 17 2.66053C17 1.19123 15.8089 0.00012207 14.3396 0.00012207C12.8703 0.00012207 11.6792 1.19123 11.6792 2.66053C11.6792 4.12984 12.8703 5.32094 14.3396 5.32094Z" fill="#DC0606"/>
</svg>
