<svg width="20" height="20" viewBox="0 0 20 20" fill="none" xmlns="http://www.w3.org/2000/svg">
<path fill-rule="evenodd" clip-rule="evenodd" d="M8.00025 1.25H16.0002V10C16.0003 10.1106 15.969 10.2192 15.9096 10.3147C15.8502 10.4103 15.7649 10.4894 15.6623 10.5439C15.5597 10.5984 15.4434 10.6264 15.3255 10.6251C15.2075 10.6237 15.0921 10.5931 14.9909 10.5363L12.0002 8.85375L9.00958 10.5375C8.9083 10.5944 8.79272 10.6251 8.67466 10.6263C8.5566 10.6276 8.4403 10.5995 8.33764 10.5448C8.23498 10.4902 8.14964 10.4109 8.09036 10.3152C8.03108 10.2195 7.99998 10.1107 8.00025 10V1.25Z" fill="white"/>
<path d="M4.00016 0H17.3335C18.0407 0 18.719 0.263392 19.2191 0.732233C19.7192 1.20107 20.0002 1.83696 20.0002 2.5V17.5C20.0002 18.163 19.7192 18.7989 19.2191 19.2678C18.719 19.7366 18.0407 20 17.3335 20H4.00016C3.29292 20 2.61464 19.7366 2.11454 19.2678C1.61445 18.7989 1.3335 18.163 1.3335 17.5V16.25H2.66683V17.5C2.66683 17.8315 2.80731 18.1495 3.05735 18.3839C3.3074 18.6183 3.64654 18.75 4.00016 18.75H17.3335C17.6871 18.75 18.0263 18.6183 18.2763 18.3839C18.5264 18.1495 18.6668 17.8315 18.6668 17.5V2.5C18.6668 2.16848 18.5264 1.85054 18.2763 1.61612C18.0263 1.3817 17.6871 1.25 17.3335 1.25H4.00016C3.64654 1.25 3.3074 1.3817 3.05735 1.61612C2.80731 1.85054 2.66683 2.16848 2.66683 2.5V3.75H1.3335V2.5C1.3335 1.83696 1.61445 1.20107 2.11454 0.732233C2.61464 0.263392 3.29292 0 4.00016 0V0Z" fill="white"/>
<path d="M1.33333 6.25V5.625C1.33333 5.45924 1.40357 5.30027 1.5286 5.18306C1.65362 5.06585 1.82319 5 2 5C2.17681 5 2.34638 5.06585 2.4714 5.18306C2.59643 5.30027 2.66667 5.45924 2.66667 5.625V6.25H3.33333C3.51014 6.25 3.67971 6.31585 3.80474 6.43306C3.92976 6.55027 4 6.70924 4 6.875C4 7.04076 3.92976 7.19973 3.80474 7.31694C3.67971 7.43415 3.51014 7.5 3.33333 7.5H0.666667C0.489856 7.5 0.320286 7.43415 0.195262 7.31694C0.0702379 7.19973 0 7.04076 0 6.875C0 6.70924 0.0702379 6.55027 0.195262 6.43306C0.320286 6.31585 0.489856 6.25 0.666667 6.25H1.33333ZM1.33333 10V9.375C1.33333 9.20924 1.40357 9.05027 1.5286 8.93306C1.65362 8.81585 1.82319 8.75 2 8.75C2.17681 8.75 2.34638 8.81585 2.4714 8.93306C2.59643 9.05027 2.66667 9.20924 2.66667 9.375V10H3.33333C3.51014 10 3.67971 10.0658 3.80474 10.1831C3.92976 10.3003 4 10.4592 4 10.625C4 10.7908 3.92976 10.9497 3.80474 11.0669C3.67971 11.1842 3.51014 11.25 3.33333 11.25H0.666667C0.489856 11.25 0.320286 11.1842 0.195262 11.0669C0.0702379 10.9497 0 10.7908 0 10.625C0 10.4592 0.0702379 10.3003 0.195262 10.1831C0.320286 10.0658 0.489856 10 0.666667 10H1.33333ZM1.33333 13.75V13.125C1.33333 12.9592 1.40357 12.8003 1.5286 12.6831C1.65362 12.5658 1.82319 12.5 2 12.5C2.17681 12.5 2.34638 12.5658 2.4714 12.6831C2.59643 12.8003 2.66667 12.9592 2.66667 13.125V13.75H3.33333C3.51014 13.75 3.67971 13.8158 3.80474 13.9331C3.92976 14.0503 4 14.2092 4 14.375C4 14.5408 3.92976 14.6997 3.80474 14.8169C3.67971 14.9342 3.51014 15 3.33333 15H0.666667C0.489856 15 0.320286 14.9342 0.195262 14.8169C0.0702379 14.6997 0 14.5408 0 14.375C0 14.2092 0.0702379 14.0503 0.195262 13.9331C0.320286 13.8158 0.489856 13.75 0.666667 13.75H1.33333Z" fill="white"/>
</svg>
