<svg width="14" height="17" viewBox="0 0 14 17" fill="none" xmlns="http://www.w3.org/2000/svg">
<path d="M1.90839 5.46689C1.90839 5.29023 1.97541 5.12081 2.09471 4.99589C2.214 4.87097 2.37581 4.80079 2.54452 4.80079H7.63356C7.80227 4.80079 7.96407 4.87097 8.08337 4.99589C8.20267 5.12081 8.26969 5.29023 8.26969 5.46689V6.7991C8.26969 6.97576 8.20267 7.14518 8.08337 7.2701C7.96407 7.39502 7.80227 7.4652 7.63356 7.4652H2.54452C2.37581 7.4652 2.214 7.39502 2.09471 7.2701C1.97541 7.14518 1.90839 6.97576 1.90839 6.7991V5.46689ZM2.86258 6.46605H7.31549V5.79995H2.86258V6.46605ZM0 4.46774C0 4.02609 0.167552 3.60253 0.465795 3.29023C0.764039 2.97794 1.16854 2.80249 1.59032 2.80249H8.90582C9.11466 2.80249 9.32146 2.84556 9.51441 2.92925C9.70735 3.01294 9.88267 3.1356 10.0303 3.29023C10.178 3.44486 10.2952 3.62844 10.3751 3.83048C10.455 4.03252 10.4961 4.24906 10.4961 4.46774V13.9597C10.4961 14.0922 10.4459 14.2192 10.3564 14.3129C10.2669 14.4066 10.1456 14.4593 10.019 14.4593H0.954195C0.954195 14.6359 1.02122 14.8053 1.14051 14.9303C1.25981 15.0552 1.42161 15.1254 1.59032 15.1254H10.019C10.1456 15.1254 10.2669 15.178 10.3564 15.2717C10.4459 15.3654 10.4961 15.4924 10.4961 15.6249C10.4961 15.7574 10.4459 15.8845 10.3564 15.9782C10.2669 16.0719 10.1456 16.1245 10.019 16.1245H1.59032C1.16854 16.1245 0.764039 15.9491 0.465795 15.6368C0.167552 15.3245 0 14.9009 0 14.4593V4.46774ZM0.954195 13.4601H9.54195V4.46774C9.54195 4.29108 9.47493 4.12166 9.35563 3.99674C9.23633 3.87182 9.07453 3.80164 8.90582 3.80164H1.59032C1.42161 3.80164 1.25981 3.87182 1.14051 3.99674C1.02122 4.12166 0.954195 4.29108 0.954195 4.46774V13.4601Z" fill="#7E7E7E"/>
<path d="M9.69136 0.877626C9.79803 0.596293 10.2017 0.596293 10.3087 0.877626L10.9987 2.78896C11.0228 2.85122 11.0652 2.90472 11.1203 2.94239C11.1754 2.98006 11.2406 3.00014 11.3074 2.99996H13.003C13.3164 2.99996 13.453 3.38996 13.2067 3.58096L12 4.66663C11.946 4.70818 11.9065 4.76578 11.8872 4.83118C11.8679 4.89657 11.8698 4.96639 11.8927 5.03063L12.3334 6.89829C12.4407 7.19829 12.0934 7.45596 11.8307 7.27129L10.1917 6.23129C10.1356 6.19185 10.0686 6.17068 10 6.17068C9.93142 6.17068 9.86449 6.19185 9.80836 6.23129L8.16936 7.27129C7.90703 7.45596 7.55936 7.19796 7.66669 6.89829L8.10736 5.03063C8.13022 4.96639 8.13214 4.89657 8.11286 4.83118C8.09358 4.76578 8.05408 4.70818 8.00003 4.66663L6.79336 3.58096C6.54669 3.38996 6.68403 2.99996 6.99669 2.99996H8.69236C8.75912 3.00018 8.82438 2.98013 8.8795 2.94245C8.93462 2.90477 8.97699 2.85125 9.00103 2.78896L9.69103 0.877626H9.69136Z" fill="white" stroke="#7E7E7E" stroke-linecap="round" stroke-linejoin="round"/>
</svg>
