<svg width="89" height="44" viewBox="0 0 89 44" fill="none" xmlns="http://www.w3.org/2000/svg">
<g filter="url(#filter0_d_1179_105)">
<rect x="4" y="4" width="81" height="36" rx="10" fill="white"/>
</g>
<path d="M31.0401 27L27.5961 23.184V27H26.5041V18.636H27.5961V22.512L31.0521 18.636H32.4321L28.6401 22.824L32.4681 27H31.0401ZM39.6877 23.46C39.6877 23.668 39.6757 23.888 39.6517 24.12H34.3957C34.4357 24.768 34.6557 25.276 35.0557 25.644C35.4637 26.004 35.9557 26.184 36.5317 26.184C37.0037 26.184 37.3957 26.076 37.7077 25.86C38.0277 25.636 38.2517 25.34 38.3797 24.972H39.5557C39.3797 25.604 39.0277 26.12 38.4997 26.52C37.9717 26.912 37.3157 27.108 36.5317 27.108C35.9077 27.108 35.3477 26.968 34.8517 26.688C34.3637 26.408 33.9797 26.012 33.6997 25.5C33.4197 24.98 33.2797 24.38 33.2797 23.7C33.2797 23.02 33.4157 22.424 33.6877 21.912C33.9597 21.4 34.3397 21.008 34.8277 20.736C35.3237 20.456 35.8917 20.316 36.5317 20.316C37.1557 20.316 37.7077 20.452 38.1877 20.724C38.6677 20.996 39.0357 21.372 39.2917 21.852C39.5557 22.324 39.6877 22.86 39.6877 23.46ZM38.5597 23.232C38.5597 22.816 38.4677 22.46 38.2837 22.164C38.0997 21.86 37.8477 21.632 37.5277 21.48C37.2157 21.32 36.8677 21.24 36.4837 21.24C35.9317 21.24 35.4597 21.416 35.0677 21.768C34.6837 22.12 34.4637 22.608 34.4077 23.232H38.5597ZM42.2211 18.12V27H41.1291V18.12H42.2211ZM49.9142 20.424V27H48.8222V26.028C48.6142 26.364 48.3222 26.628 47.9462 26.82C47.5782 27.004 47.1702 27.096 46.7222 27.096C46.2102 27.096 45.7502 26.992 45.3422 26.784C44.9342 26.568 44.6102 26.248 44.3702 25.824C44.1382 25.4 44.0222 24.884 44.0222 24.276V20.424H45.1022V24.132C45.1022 24.78 45.2662 25.28 45.5942 25.632C45.9222 25.976 46.3702 26.148 46.9382 26.148C47.5222 26.148 47.9822 25.968 48.3182 25.608C48.6542 25.248 48.8222 24.724 48.8222 24.036V20.424H49.9142ZM51.35 23.688C51.35 23.016 51.486 22.428 51.758 21.924C52.03 21.412 52.402 21.016 52.874 20.736C53.354 20.456 53.886 20.316 54.47 20.316C55.046 20.316 55.546 20.44 55.97 20.688C56.394 20.936 56.71 21.248 56.918 21.624V20.424H58.022V27H56.918V25.776C56.702 26.16 56.378 26.48 55.946 26.736C55.522 26.984 55.026 27.108 54.458 27.108C53.874 27.108 53.346 26.964 52.874 26.676C52.402 26.388 52.03 25.984 51.758 25.464C51.486 24.944 51.35 24.352 51.35 23.688ZM56.918 23.7C56.918 23.204 56.818 22.772 56.618 22.404C56.418 22.036 56.146 21.756 55.802 21.564C55.466 21.364 55.094 21.264 54.686 21.264C54.278 21.264 53.906 21.36 53.57 21.552C53.234 21.744 52.966 22.024 52.766 22.392C52.566 22.76 52.466 23.192 52.466 23.688C52.466 24.192 52.566 24.632 52.766 25.008C52.966 25.376 53.234 25.66 53.57 25.86C53.906 26.052 54.278 26.148 54.686 26.148C55.094 26.148 55.466 26.052 55.802 25.86C56.146 25.66 56.418 25.376 56.618 25.008C56.818 24.632 56.918 24.196 56.918 23.7ZM60.9594 21.492C61.1514 21.116 61.4234 20.824 61.7754 20.616C62.1354 20.408 62.5714 20.304 63.0834 20.304V21.432H62.7954C61.5714 21.432 60.9594 22.096 60.9594 23.424V27H59.8674V20.424H60.9594V21.492Z" fill="#DC0606"/>
<defs>
<filter id="filter0_d_1179_105" x="0" y="0" width="89" height="44" filterUnits="userSpaceOnUse" color-interpolation-filters="sRGB">
<feFlood flood-opacity="0" result="BackgroundImageFix"/>
<feColorMatrix in="SourceAlpha" type="matrix" values="0 0 0 0 0 0 0 0 0 0 0 0 0 0 0 0 0 0 127 0" result="hardAlpha"/>
<feOffset/>
<feGaussianBlur stdDeviation="2"/>
<feComposite in2="hardAlpha" operator="out"/>
<feColorMatrix type="matrix" values="0 0 0 0 0 0 0 0 0 0 0 0 0 0 0 0 0 0 0.2 0"/>
<feBlend mode="normal" in2="BackgroundImageFix" result="effect1_dropShadow_1179_105"/>
<feBlend mode="normal" in="SourceGraphic" in2="effect1_dropShadow_1179_105" result="shape"/>
</filter>
</defs>
</svg>
