<svg width="13" height="15" viewBox="0 0 13 15" fill="none" xmlns="http://www.w3.org/2000/svg">
<path d="M11.362 2.82588C11.493 2.82588 11.6186 2.77334 11.7113 2.67982C11.8039 2.5863 11.856 2.45946 11.856 2.3272V0.498685C11.856 0.366426 11.8039 0.239583 11.7113 0.146062C11.6186 0.0525399 11.493 0 11.362 0C11.2309 0 11.1053 0.0525399 11.0127 0.146062C10.92 0.239583 10.868 0.366426 10.868 0.498685V0.914921C10.1477 0.392746 9.27444 0.13027 8.38856 0.1697C7.50268 0.20913 6.65567 0.548176 5.98375 1.13232C5.31183 1.71646 4.85403 2.51174 4.68399 3.39029C4.51395 4.26883 4.64154 5.17958 5.04624 5.97607C5.45094 6.77257 6.10924 7.40852 6.91527 7.78166C7.7213 8.1548 8.62822 8.24345 9.4902 8.03335C10.3522 7.82325 11.1191 7.32661 11.6677 6.6233C12.2162 5.91999 12.5145 5.05087 12.5146 4.15571C12.5146 4.02345 12.4626 3.89661 12.3699 3.80309C12.2773 3.70957 12.1516 3.65703 12.0206 3.65703C11.8896 3.65703 11.764 3.70957 11.6713 3.80309C11.5787 3.89661 11.5266 4.02345 11.5266 4.15571C11.5264 4.8344 11.2977 5.49287 10.8779 6.02302C10.4582 6.55317 9.87232 6.92351 9.21657 7.07325C8.56083 7.22299 7.87413 7.14322 7.26921 6.84706C6.66429 6.55089 6.17708 6.05591 5.88756 5.44337C5.59804 4.83083 5.52341 4.13713 5.67592 3.47613C5.82842 2.81513 6.19901 2.22611 6.72685 1.80575C7.25468 1.38539 7.9084 1.15867 8.5807 1.16281C9.25301 1.16695 9.90394 1.40169 10.4267 1.82851H9.55064C9.41962 1.82851 9.29397 1.88105 9.20133 1.97457C9.10868 2.0681 9.05664 2.19494 9.05664 2.3272C9.05664 2.45946 9.10868 2.5863 9.20133 2.67982C9.29397 2.77334 9.41962 2.82588 9.55064 2.82588H11.362ZM1.64666 0.831142H5.33584C5.03653 1.12702 4.7784 1.46254 4.5685 1.82851H1.64666C1.47197 1.82851 1.30444 1.89857 1.18092 2.02326C1.05739 2.14796 0.987997 2.31708 0.987997 2.49343V11.4698H9.87997V8.61728C10.2249 8.51355 10.5565 8.36915 10.868 8.18708V11.9684C10.868 12.1007 10.8159 12.2276 10.7233 12.3211C10.6306 12.4146 10.505 12.4671 10.374 12.4671H0.987997C0.987997 12.6435 1.05739 12.8126 1.18092 12.9373C1.30444 13.062 1.47197 13.132 1.64666 13.132H10.374C10.505 13.132 10.6306 13.1846 10.7233 13.2781C10.8159 13.3716 10.868 13.4985 10.868 13.6307C10.868 13.763 10.8159 13.8898 10.7233 13.9834C10.6306 14.0769 10.505 14.1294 10.374 14.1294H1.64666C1.20994 14.1294 0.791105 13.9543 0.482296 13.6425C0.173487 13.3308 0 12.908 0 12.4671V2.49343C0 2.05256 0.173487 1.62975 0.482296 1.31801C0.791105 1.00628 1.20994 0.831142 1.64666 0.831142Z" fill="#7E7E7E"/>
</svg>
