<svg width="26" height="27" viewBox="0 0 26 27" fill="none" xmlns="http://www.w3.org/2000/svg">
<path d="M9.83333 3.4137H4.25C3.69772 3.4137 3.25 3.86141 3.25 4.4137V10.0245C3.25 10.5768 3.69772 11.0245 4.25 11.0245H9.83333C10.3856 11.0245 10.8333 10.5768 10.8333 10.0245V4.4137C10.8333 3.86141 10.3856 3.4137 9.83333 3.4137Z" stroke="white" stroke-width="2" stroke-linecap="round" stroke-linejoin="round"/>
<path d="M15.1666 7.21909C15.1666 9.31317 16.8642 11.0245 18.9583 11.0245C21.0524 11.0245 22.75 9.31317 22.75 7.21909C22.75 5.12501 21.0524 3.4137 18.9583 3.4137C16.8642 3.4137 15.1666 5.12501 15.1666 7.21909Z" stroke="white" stroke-width="2" stroke-linecap="round" stroke-linejoin="round"/>
<path d="M21.75 15.3735H16.1666C15.6143 15.3735 15.1666 15.8212 15.1666 16.3735V21.9843C15.1666 22.5366 15.6143 22.9843 16.1666 22.9843H21.75C22.3022 22.9843 22.75 22.5366 22.75 21.9843V16.3735C22.75 15.8213 22.3022 15.3735 21.75 15.3735Z" stroke="white" stroke-width="2" stroke-linecap="round" stroke-linejoin="round"/>
<path d="M9.83333 15.3735H4.25C3.69772 15.3735 3.25 15.8212 3.25 16.3735V21.9843C3.25 22.5366 3.69772 22.9843 4.25 22.9843H9.83333C10.3856 22.9843 10.8333 22.5366 10.8333 21.9843V16.3735C10.8333 15.8213 10.3856 15.3735 9.83333 15.3735Z" stroke="white" stroke-width="2" stroke-linecap="round" stroke-linejoin="round"/>
</svg>
