<svg width="22" height="27" viewBox="0 0 22 27" fill="none" xmlns="http://www.w3.org/2000/svg">
<path d="M10.3503 26.1705C11.4042 26.1425 12.4156 25.6855 13.2055 24.8804C13.9954 24.0752 14.513 22.9738 14.6667 21.771H5.8667C6.02475 23.0065 6.56656 24.1338 7.39131 24.9431C8.21607 25.7523 9.26762 26.1885 10.3503 26.1705Z" fill="white"/>
<path d="M20.5196 18.6814L20.2855 18.4748C19.6213 17.883 19.0399 17.2044 18.5571 16.4573C18.0299 15.4262 17.7138 14.3001 17.6276 13.1452V9.74365C17.6248 9.33047 17.5879 8.91823 17.5174 8.5111C16.351 8.27136 15.3033 7.63593 14.5517 6.71239C13.8001 5.78884 13.3907 4.63392 13.3928 3.44317V3.00937C12.6739 2.65557 11.9015 2.42292 11.1067 2.32079V1.45319C11.1067 1.20939 11.0099 0.975571 10.8375 0.803178C10.6651 0.630785 10.4313 0.533936 10.1875 0.533936C9.9437 0.533936 9.70988 0.630785 9.53749 0.803178C9.3651 0.975571 9.26825 1.20939 9.26825 1.45319V2.35522C7.48877 2.60624 5.86019 3.49257 4.68316 4.85058C3.50614 6.20858 2.86016 7.94656 2.86448 9.74365V13.1452C2.77824 14.3001 2.4622 15.4262 1.9349 16.4573C1.46039 17.2026 0.888398 17.8811 0.234116 18.4748L0 18.6814V20.6232H20.5196V18.6814Z" fill="white"/>
<path d="M18.5571 6.88589C20.4586 6.88589 22 5.34446 22 3.44301C22 1.54155 20.4586 0.00012207 18.5571 0.00012207C16.6557 0.00012207 15.1143 1.54155 15.1143 3.44301C15.1143 5.34446 16.6557 6.88589 18.5571 6.88589Z" fill="#DC0606"/>
</svg>
