<svg width="11" height="14" viewBox="0 0 11 14" fill="none" xmlns="http://www.w3.org/2000/svg">
<path d="M7.7 8.3125C6.99531 8.3125 6.65647 8.75 5.5 8.75C4.34353 8.75 4.00714 8.3125 3.3 8.3125C1.47812 8.3125 0 9.95859 0 11.9875V12.6875C0 13.4121 0.527902 14 1.17857 14H9.82143C10.4721 14 11 13.4121 11 12.6875V11.9875C11 9.95859 9.52187 8.3125 7.7 8.3125ZM9.82143 12.6875H1.17857V11.9875C1.17857 10.6859 2.13125 9.625 3.3 9.625C3.65848 9.625 4.2404 10.0625 5.5 10.0625C6.76942 10.0625 7.33906 9.625 7.7 9.625C8.86875 9.625 9.82143 10.6859 9.82143 11.9875V12.6875ZM5.5 7.875C7.45201 7.875 9.03571 6.11133 9.03571 3.9375C9.03571 1.76367 7.45201 0 5.5 0C3.54799 0 1.96429 1.76367 1.96429 3.9375C1.96429 6.11133 3.54799 7.875 5.5 7.875ZM5.5 1.3125C6.79888 1.3125 7.85714 2.49102 7.85714 3.9375C7.85714 5.38398 6.79888 6.5625 5.5 6.5625C4.20112 6.5625 3.14286 5.38398 3.14286 3.9375C3.14286 2.49102 4.20112 1.3125 5.5 1.3125Z" fill="#7E7E7E"/>
</svg>
