<svg viewBox="0 0 18 18" fill="none" xmlns="http://www.w3.org/2000/svg">
<path d="M9.33887 0.430786C7.65773 0.430786 6.01434 0.935438 4.61652 1.88092C3.21871 2.82641 2.12924 4.17027 1.48589 5.74256C0.84255 7.31484 0.674222 9.04494 1.0022 10.7141C1.33017 12.3832 2.13972 13.9164 3.32846 15.1198C4.51721 16.3232 6.03176 17.1427 7.6806 17.4747C9.32944 17.8067 11.0385 17.6363 12.5917 16.985C14.1448 16.3338 15.4724 15.2309 16.4064 13.8159C17.3404 12.4008 17.8389 10.7372 17.8389 9.0354C17.8345 6.75466 16.9376 4.56858 15.3445 2.95585C13.7514 1.34312 11.5919 0.43516 9.33887 0.430786V0.430786ZM9.33887 16.3162C7.91637 16.3162 6.52581 15.8892 5.34304 15.0892C4.16027 14.2892 3.23841 13.152 2.69404 11.8217C2.14968 10.4913 2.00724 9.02732 2.28476 7.61498C2.56228 6.20264 3.24728 4.90532 4.25314 3.88708C5.259 2.86884 6.54055 2.1754 7.93572 1.89447C9.33089 1.61354 10.777 1.75772 12.0912 2.30879C13.4055 2.85986 14.5288 3.79306 15.3191 4.99039C16.1094 6.18771 16.5312 7.59539 16.5312 9.0354C16.529 10.9657 15.7706 12.8164 14.4222 14.1813C13.0739 15.5462 11.2457 16.314 9.33887 16.3162V16.3162ZM10.3196 5.39499V13.0068C10.3196 13.1823 10.2508 13.3507 10.1281 13.4748C10.0055 13.5989 9.8392 13.6687 9.66579 13.6687C9.49238 13.6687 9.32607 13.5989 9.20345 13.4748C9.08083 13.3507 9.01195 13.1823 9.01195 13.0068V6.62776L8.06387 7.27311C7.91864 7.36966 7.74147 7.40385 7.57133 7.36816C7.4012 7.33248 7.25203 7.22983 7.15666 7.08281C7.06128 6.9358 7.02751 6.75644 7.06276 6.58421C7.09801 6.41199 7.19941 6.26099 7.34464 6.16444L9.30618 4.84065C9.40546 4.77678 9.51945 4.74015 9.63695 4.73435C9.75444 4.72855 9.87141 4.75377 9.97637 4.80756C10.0809 4.86467 10.1681 4.94953 10.2286 5.05303C10.289 5.15652 10.3205 5.27474 10.3196 5.39499Z" fill="white"/>
</svg>
