<svg viewBox="0 0 18 18" fill="none" xmlns="http://www.w3.org/2000/svg">
<path d="M9.33887 0.733032C7.65773 0.733032 6.01434 1.23768 4.61652 2.18317C3.21871 3.12866 2.12924 4.47251 1.48589 6.0448C0.84255 7.61709 0.674222 9.34719 1.0022 11.0163C1.33017 12.6855 2.13972 14.2186 3.32846 15.422C4.51721 16.6254 6.03176 17.4449 7.6806 17.7769C9.32944 18.1089 11.0385 17.9385 12.5917 17.2873C14.1448 16.636 15.4724 15.5331 16.4064 14.1181C17.3404 12.7031 17.8389 11.0395 17.8389 9.33765C17.8345 7.0569 16.9376 4.87083 15.3445 3.2581C13.7514 1.64537 11.5919 0.737406 9.33887 0.733032V0.733032ZM9.33887 16.6185C7.91637 16.6185 6.52581 16.1915 5.34304 15.3914C4.16027 14.5914 3.23841 13.4543 2.69404 12.1239C2.14968 10.7935 2.00724 9.32957 2.28476 7.91723C2.56228 6.50488 3.24728 5.20757 4.25314 4.18932C5.259 3.17108 6.54055 2.47765 7.93572 2.19672C9.33089 1.91579 10.777 2.05997 12.0912 2.61104C13.4055 3.16211 14.5288 4.09531 15.3191 5.29263C16.1094 6.48996 16.5312 7.89763 16.5312 9.33765C16.529 11.268 15.7706 13.1186 14.4222 14.4835C13.0739 15.8485 11.2457 16.6163 9.33887 16.6185V16.6185ZM11.4884 8.85777L8.68502 12.6471H11.3004C11.4738 12.6471 11.6401 12.7168 11.7627 12.841C11.8854 12.9651 11.9543 13.1335 11.9543 13.309C11.9543 13.4846 11.8854 13.6529 11.7627 13.777C11.6401 13.9012 11.4738 13.9709 11.3004 13.9709H7.37733C7.30784 13.972 7.23869 13.9608 7.173 13.9378C7.04222 13.8943 6.92836 13.81 6.84764 13.6971C6.76692 13.5842 6.72347 13.4484 6.72349 13.309C6.7207 13.1614 6.76996 13.0177 6.86243 12.9036L10.4341 8.08005C10.564 7.88025 10.6381 7.64853 10.6484 7.40952C10.6587 7.17051 10.6048 6.93315 10.4924 6.72268C10.3801 6.5122 10.2135 6.33648 10.0104 6.21419C9.80725 6.0919 9.57519 6.02762 9.33887 6.02818C9.08185 6.02791 8.83052 6.10479 8.61666 6.24912C8.40281 6.39344 8.23603 6.59872 8.13743 6.839C8.06915 7.00138 7.93994 7.12965 7.77824 7.19559C7.61653 7.26153 7.43557 7.25975 7.27517 7.19063C7.11476 7.12151 6.98805 6.99071 6.92291 6.82702C6.85777 6.66332 6.85953 6.48014 6.92781 6.31776C7.07082 5.97881 7.28216 5.67383 7.54831 5.42233C7.81445 5.17083 8.12954 4.97835 8.47339 4.85721C8.81725 4.73608 9.18231 4.68895 9.54519 4.71885C9.90807 4.74876 10.2608 4.85503 10.5808 5.03087C10.9007 5.20671 11.1809 5.44824 11.4034 5.74001C11.6259 6.03177 11.7857 6.36734 11.8727 6.72524C11.9596 7.08313 11.9718 7.45547 11.9085 7.81841C11.8451 8.18135 11.7076 8.52691 11.5047 8.83295L11.4884 8.85777Z" fill="white"/>
</svg>
