<svg viewBox="0 0 18 18" fill="none" xmlns="http://www.w3.org/2000/svg">
<path d="M9.33887 0.119629C7.65773 0.119629 6.01434 0.624281 4.61652 1.56977C3.21871 2.51525 2.12924 3.85911 1.48589 5.4314C0.84255 7.00369 0.674222 8.73379 1.0022 10.4029C1.33017 12.0721 2.13972 13.6052 3.32846 14.8086C4.51721 16.012 6.03176 16.8315 7.6806 17.1635C9.32944 17.4955 11.0385 17.3251 12.5917 16.6739C14.1448 16.0226 15.4724 14.9197 16.4064 13.5047C17.3404 12.0897 17.8389 10.4261 17.8389 8.72424C17.8345 6.4435 16.9376 4.25742 15.3445 2.64469C13.7514 1.03196 11.5919 0.124002 9.33887 0.119629ZM9.33887 16.0051C7.91637 16.0051 6.52581 15.5781 5.34304 14.778C4.16027 13.978 3.23841 12.8409 2.69404 11.5105C2.14968 10.1801 2.00724 8.71617 2.28476 7.30382C2.56228 5.89148 3.24728 4.59416 4.25314 3.57592C5.259 2.55768 6.54055 1.86425 7.93572 1.58331C9.33089 1.30238 10.777 1.44657 12.0912 1.99764C13.4055 2.5487 14.5288 3.48191 15.3191 4.67923C16.1094 5.87656 16.5312 7.28423 16.5312 8.72424C16.529 10.6546 15.7706 12.5052 14.4222 13.8701C13.0739 15.2351 11.2457 16.0029 9.33887 16.0051ZM11.0961 8.60014C11.6079 9.16781 11.8838 9.91336 11.8665 10.6817C11.8492 11.4501 11.54 12.1821 11.0031 12.7256C10.4663 13.2691 9.74312 13.5821 8.9841 13.5996C8.22507 13.6172 7.48859 13.3378 6.92781 12.8197C6.82355 12.6911 6.77026 12.5278 6.77833 12.3617C6.78639 12.1955 6.85522 12.0383 6.97143 11.9207C7.08764 11.803 7.24292 11.7333 7.40707 11.7252C7.57122 11.717 7.7325 11.771 7.85954 11.8765C8.04956 12.0654 8.28248 12.2041 8.53784 12.2805C8.7932 12.3569 9.06319 12.3687 9.3241 12.3148C9.58501 12.2609 9.82886 12.143 10.0342 11.9714C10.2396 11.7998 10.4002 11.5798 10.502 11.3307C10.6037 11.0816 10.6435 10.811 10.6178 10.5427C10.5921 10.2744 10.5017 10.0166 10.3546 9.79192C10.2075 9.56724 10.0081 9.38256 9.77401 9.2541C9.53991 9.12565 9.27822 9.05734 9.01195 9.05519C8.89251 9.05439 8.77552 9.0209 8.67336 8.95827C8.5712 8.89564 8.48769 8.8062 8.43166 8.69942C8.37564 8.59216 8.34983 8.47138 8.35703 8.35027C8.36424 8.22916 8.40419 8.11239 8.47252 8.01271L10.0418 5.74572H7.37733C7.20392 5.74572 7.03761 5.67599 6.91499 5.55186C6.79237 5.42773 6.72349 5.25937 6.72349 5.08383C6.72349 4.90828 6.79237 4.73993 6.91499 4.6158C7.03761 4.49167 7.20392 4.42194 7.37733 4.42194H11.3004C11.4198 4.42273 11.5368 4.45622 11.639 4.51885C11.7411 4.58149 11.8247 4.67093 11.8807 4.7777C11.9367 4.88496 11.9625 5.00575 11.9553 5.12686C11.9481 5.24797 11.9082 5.36474 11.8398 5.46442L10.1153 7.94652C10.4804 8.0991 10.8133 8.32096 11.0961 8.60014Z" fill="white"/>
</svg>
